# xmcd CD database file
#
# Track frame offsets:
#	150
#	28098
#	48338
#	67682
#	87229
#	105958
#	130235
#	151346
#	173650
#	190787
#
# Disc length: 2815 seconds
#
# Revision: 1
# Processed by: cddbd v1.5.2PL0 Copyright (c) Steve Scherf et al.
# Submitted via: NeoAudio 9.9.9
#
DISCID=700afd0a
DTITLE=Son de madre - Rumberos
DYEAR=2006
DGENRE=Salsa
TTITLE0=Rumberos
TTITLE1=Caña Quema
TTITLE2=Ella Sabe
TTITLE3=No Me Digas
TTITLE4=Mi Vecina
TTITLE5=Cartas De Amor Guajiro
TTITLE6=Carmela
TTITLE7=Barrunto
TTITLE8=Lo que faltaba
TTITLE9=Son de madre
EXTD=YEAR: 2006
EXTT0=
EXTT1=
EXTT2=
EXTT3=
EXTT4=
EXTT5=
EXTT6=
EXTT7=
EXTT8=
EXTT9=
PLAYORDER=
